<?xml version="1.0" standalone="no"?>
<!DOCTYPE svg PUBLIC "-//W3C//DTD SVG 20010904//EN"
 "http://www.w3.org/TR/2001/REC-SVG-20010904/DTD/svg10.dtd">
<svg version="1.0" xmlns="http://www.w3.org/2000/svg"
 width="1182.000000pt" height="1176.000000pt" viewBox="0 0 182.000000 176.000000"
 preserveAspectRatio="xMidYMid meet">

<g transform="translate(0.000000,176.000000) scale(0.100000,-0.100000)"
fill="#000000" stroke="none">
<path d="M824 1351 c-97 -25 -186 -99 -227 -189 -29 -65 -30 -188 0 -253 96
-212 379 -260 535 -91 61 67 83 122 83 217 0 67 -4 89 -28 136 -32 66 -100
132 -162 160 -50 22 -154 32 -201 20z m193 -216 c34 -34 35 -37 31 -100 -4
-69 -21 -101 -71 -138 -25 -19 -28 -20 -71 -3 l-45 17 -3 105 c-3 102 -3 104
19 104 21 0 22 -4 25 -97 l3 -98 31 -3 c41 -4 64 31 71 107 5 50 2 61 -19 85
-29 34 -93 44 -153 24 -37 -12 -40 -16 -41 -50 0 -21 -3 -41 -7 -44 -11 -11
-37 17 -37 41 0 46 75 84 169 85 59 0 65 -2 98 -35z"/>
<path d="M246 629 c-20 -16 -26 -29 -26 -61 0 -47 23 -49 27 -2 2 31 34 64 62
64 9 0 27 -7 39 -16 27 -19 30 -78 5 -114 -27 -40 -45 -48 -71 -31 -11 6 -7
21 16 70 16 34 25 64 20 67 -15 10 -44 -23 -58 -65 -12 -38 -14 -39 -48 -34
-42 7 -68 -17 -51 -49 8 -14 21 -18 62 -18 29 0 67 0 85 -1 84 -4 138 148 69
196 -31 22 -99 19 -131 -6z m-31 -149 c3 -5 -3 -10 -15 -10 -12 0 -18 5 -15
10 3 6 10 10 15 10 5 0 12 -4 15 -10z"/>
<path d="M1455 621 c-8 -15 3 -31 21 -31 9 0 14 7 12 17 -4 20 -24 28 -33 14z"/>
<path d="M604 605 c-4 -8 -14 -15 -23 -15 -13 0 -14 -2 -2 -9 12 -8 11 -17
-10 -58 -14 -26 -33 -49 -42 -51 -16 -3 -16 1 3 48 20 51 20 51 1 45 -11 -3
-29 0 -40 7 -18 11 -24 9 -46 -13 -49 -48 -43 -134 8 -108 13 7 23 7 33 -2 11
-9 20 -9 40 0 20 9 30 9 40 0 10 -8 21 -7 43 4 26 13 31 13 44 0 11 -11 20
-13 33 -5 10 6 25 7 34 2 8 -4 32 -5 52 -1 32 5 41 13 60 51 23 44 59 73 44
34 -29 -72 -13 -105 38 -79 23 12 30 12 54 -2 26 -15 31 -15 62 0 30 16 34 16
45 1 10 -14 15 -14 34 -5 17 10 26 10 37 1 11 -10 19 -9 38 3 21 14 25 14 39
0 14 -15 18 -15 42 1 15 10 36 33 47 52 31 52 49 44 28 -12 -15 -38 7 -62 39
-44 15 7 26 8 34 2 7 -6 29 -7 50 -3 34 5 42 12 60 50 22 46 47 65 47 37 0 -9
-9 -21 -20 -28 -11 -7 -20 -21 -20 -30 0 -21 35 -42 53 -32 23 13 57 47 57 57
0 6 -11 0 -24 -13 -16 -14 -31 -20 -42 -16 -14 5 -13 10 10 31 37 34 33 71 -7
67 -25 -3 -27 -1 -18 17 15 27 14 31 -8 31 -14 0 -24 -16 -41 -59 -21 -58 -54
-101 -66 -88 -4 3 1 24 10 47 20 49 20 50 1 50 -8 0 -24 -20 -36 -45 -12 -25
-26 -48 -31 -51 -17 -10 -22 5 -10 31 10 21 9 28 -8 45 -11 11 -20 27 -20 35
0 8 -5 15 -10 15 -11 0 -14 -7 -24 -53 -7 -32 -65 -100 -66 -77 0 28 34 110
46 110 7 0 10 8 7 20 -3 11 -12 20 -19 20 -16 0 -55 -36 -47 -43 9 -10 -17
-74 -37 -92 -28 -26 -36 -11 -17 30 21 44 21 55 2 55 -9 0 -24 -19 -35 -44
-18 -42 -36 -63 -46 -53 -3 3 2 22 10 42 20 47 20 55 0 55 -8 0 -21 -15 -29
-33 -21 -50 -51 -72 -92 -68 -20 2 -15 21 5 21 47 0 79 53 47 80 -27 22 -63 3
-96 -50 -39 -63 -67 -70 -43 -10 20 50 13 75 -19 65 -12 -4 -32 -6 -44 -6 -17
1 -27 -10 -41 -43 -20 -44 -38 -63 -50 -52 -5 6 -1 20 23 80 7 15 5 17 -13 12
-11 -4 -30 -1 -42 6 -19 12 -24 10 -43 -13 -12 -15 -30 -40 -39 -58 -20 -36
-53 -44 -42 -9 15 47 35 88 43 88 5 0 7 9 4 20 -6 23 -31 27 -39 5z m-111 -61
c9 -9 -13 -62 -28 -68 -22 -8 -25 6 -10 42 13 31 25 39 38 26z m223 -43 c-9
-17 -21 -31 -26 -31 -16 0 -11 42 7 62 25 28 38 6 19 -31z m295 16 c-16 -16
-26 0 -10 19 9 11 15 12 17 4 2 -6 -1 -17 -7 -23z"/>
</g>
</svg>
